<svg xmlns="http://www.w3.org/2000/svg" viewBox="0 0 1200 400" role="img" aria-label="playplace: short-lived AWS playground accounts with guardrails">
  <rect width="1200" height="400" rx="36" fill="#E8F2FC"/>
  <!-- faint clouds in the sky -->
  <g fill="#FFFFFF" opacity=".7">
    <circle cx="960" cy="90" r="34"/><circle cx="1000" cy="72" r="46"/><circle cx="1046" cy="94" r="32"/><rect x="926" y="92" width="152" height="40" rx="20"/>
    <circle cx="140" cy="330" r="22"/><circle cx="168" cy="318" r="30"/><circle cx="200" cy="332" r="20"/><rect x="118" y="330" width="104" height="26" rx="13"/>
    <circle cx="1080" cy="300" r="20"/><circle cx="1106" cy="288" r="28"/><circle cx="1136" cy="302" r="18"/><rect x="1060" y="300" width="96" height="24" rx="12"/>
  </g>
  <g transform="translate(64 72)">
      <defs>
        <clipPath id="cloud-b">
          <circle cx="84" cy="136" r="50"/>
          <circle cx="136" cy="108" r="62"/>
          <circle cx="190" cy="140" r="46"/>
          <rect x="40" y="136" width="196" height="62" rx="28"/>
        </clipPath>
      </defs>
      <!-- cloud outline: the same shapes, grown by the stroke width -->
      <g fill="#8FB8E8">
        <circle cx="84" cy="136" r="57"/>
        <circle cx="136" cy="108" r="69"/>
        <circle cx="190" cy="140" r="53"/>
        <rect x="33" y="136" width="210" height="69" rx="34"/>
      </g>
      <g fill="#FFFFFF">
        <circle cx="84" cy="136" r="50"/>
        <circle cx="136" cy="108" r="62"/>
        <circle cx="190" cy="140" r="46"/>
        <rect x="40" y="136" width="196" height="62" rx="28"/>
      </g>
      <g clip-path="url(#cloud-b)">
        <!-- tube slide: body, a highlight along the top, ring seams between segments -->
        <path d="M222 58 C 206 96, 188 130, 156 144" fill="none" stroke="#E63946" stroke-width="24" stroke-linecap="butt"/>
        <path d="M222 58 C 206 96, 188 130, 156 144" fill="none" stroke="#FF98A0" stroke-width="6" stroke-linecap="butt" opacity=".85" transform="translate(-3 -3)"/>
        <g stroke="#A81E2B" stroke-width="3" stroke-linecap="round" opacity=".8">
      <line x1="203.8" y1="118.3" x2="184.3" y2="104.4"/><line x1="192.7" y1="132.0" x2="175.1" y2="115.6"/><line x1="179.0" y1="144.3" x2="164.6" y2="125.1"/>
    </g>
        <!-- the tube starts above the cloud, so the clip cuts it at the outline and it comes out from under the edge; a shadow just inside sells it -->
    <line x1="211.5" y1="106.7" x2="190.9" y2="94.3" stroke="#7A1420" stroke-width="6" stroke-linecap="butt" opacity=".35"/>
        <!-- open mouth at the bottom -->
            <ellipse cx="156" cy="144" rx="7" ry="13" transform="rotate(156.4 156 144)" fill="#7A1420" stroke="#FF98A0" stroke-width="3"/>
        <!-- ball pit, two rows, clipped by the cloud; one ball has just landed under the mouth -->
        <g>
          <circle cx="74" cy="160" r="15" fill="#2DBE6C"/><circle cx="106" cy="160" r="15" fill="#FFC531"/><circle cx="138" cy="160" r="15" fill="#2E86DE"/><circle cx="170" cy="160" r="15" fill="#6C4DF2"/><circle cx="202" cy="160" r="15" fill="#FFC531"/>
          <circle cx="58" cy="186" r="15" fill="#FFC531"/><circle cx="90" cy="186" r="15" fill="#2E86DE"/><circle cx="122" cy="186" r="15" fill="#E63946"/><circle cx="154" cy="186" r="15" fill="#2DBE6C"/><circle cx="186" cy="186" r="15" fill="#2E86DE"/><circle cx="218" cy="186" r="15" fill="#E63946"/>
        </g>
        <g fill="#FFFFFF" opacity=".75">
          <circle cx="69" cy="155" r="4"/><circle cx="101" cy="155" r="4"/><circle cx="133" cy="155" r="4"/><circle cx="165" cy="155" r="4"/><circle cx="197" cy="155" r="4"/>
          <circle cx="53" cy="181" r="4"/><circle cx="85" cy="181" r="4"/><circle cx="117" cy="181" r="4"/><circle cx="149" cy="181" r="4"/><circle cx="181" cy="181" r="4"/><circle cx="213" cy="181" r="4"/>
        </g>
      </g>
  </g>
  <g font-family="Nunito, 'Avenir Next Rounded', 'Arial Rounded MT Bold', 'Helvetica Neue', Arial, sans-serif">
    <text x="372" y="214" font-weight="800" font-size="132" letter-spacing="-4"><tspan fill="#6C4DF2">play</tspan><tspan fill="#1C1B22">place</tspan></text>
    <text x="378" y="276" font-weight="600" font-size="29" fill="#3F3D4D">Short-lived AWS playground accounts with guardrails.</text>
  </g>
</svg>
